<?xml version="1.0" encoding="UTF-8"?>
<svg xmlns="http://www.w3.org/2000/svg" xmlns:xlink="http://www.w3.org/1999/xlink" viewBox="0 0 64 64" version="1.1" width="64px" height="64px">
<g id="surface1">
<path style=" fill:#ED7899;" d="M 59.921875 17.503906 C 59.359375 13.578125 56.21875 10.535156 52.28125 10.097656 L 49.199219 9.753906 C 37.785156 8.484375 26.214844 8.484375 14.800781 9.753906 L 11.71875 10.097656 C 7.78125 10.535156 4.640625 13.578125 4.078125 17.503906 C 2.703125 27.140625 2.644531 36.921875 3.902344 46.574219 L 4.140625 48.398438 C 4.660156 52.378906 7.804688 55.46875 11.792969 55.910156 L 14.800781 56.246094 C 20.507813 56.878906 26.253906 57.195313 32 57.195313 C 37.746094 57.195313 43.492188 56.878906 49.195313 56.246094 L 52.203125 55.910156 C 56.191406 55.46875 59.339844 52.378906 59.859375 48.402344 L 60.097656 46.574219 C 61.355469 36.921875 61.296875 27.140625 59.921875 17.503906 Z "/>
<path style=" fill:#E0678F;" d="M 8.023438 50 C 6.261719 50 5.339844 52.136719 6.578125 53.386719 C 7.9375 54.765625 9.753906 55.683594 11.792969 55.910156 L 14.800781 56.246094 C 20.507813 56.878906 26.253906 57.195313 32 57.195313 C 37.746094 57.195313 43.492188 56.878906 49.195313 56.246094 L 52.203125 55.910156 C 54.242188 55.683594 56.0625 54.765625 57.421875 53.386719 C 58.660156 52.136719 57.738281 50 55.976563 50 Z "/>
<path style=" fill:#F283A5;" d="M 55.976563 16.195313 C 57.738281 16.195313 58.660156 14.0625 57.421875 12.808594 C 56.0625 11.433594 54.246094 10.511719 52.207031 10.285156 L 49.199219 9.949219 C 43.492188 9.316406 37.746094 9 32 9 C 26.253906 9 20.507813 9.316406 14.800781 9.949219 L 11.796875 10.285156 C 9.753906 10.511719 7.9375 11.429688 6.578125 12.808594 C 5.339844 14.058594 6.265625 16.195313 8.023438 16.195313 Z "/>
<path style=" fill:#FAEFDE;" d="M 25.472656 41.894531 L 25.46875 24 L 41.746094 32.976563 Z "/>
<path style=" fill:#8D6C9F;" d="M 14 14 C 13.449219 14 13 14.445313 13 15 L 13 17 C 13 17.554688 13.449219 18 14 18 C 14.550781 18 15 17.554688 15 17 L 15 15 C 15 14.445313 14.550781 14 14 14 Z "/>
<path style=" fill:#8D6C9F;" d="M 9 14 C 8.449219 14 8 14.445313 8 15 L 8 17 C 8 17.554688 8.449219 18 9 18 C 9.550781 18 10 17.554688 10 17 L 10 15 C 10 14.445313 9.550781 14 9 14 Z "/>
<path style=" fill:#8D6C9F;" d="M 29 18 C 29.550781 18 30 17.554688 30 17 L 30 15 C 30 14.445313 29.550781 14 29 14 C 28.449219 14 28 14.445313 28 15 L 28 17 C 28 17.554688 28.449219 18 29 18 Z "/>
<path style=" fill:#8D6C9F;" d="M 34 18 C 34.550781 18 35 17.554688 35 17 L 35 15 C 35 14.445313 34.550781 14 34 14 C 33.449219 14 33 14.445313 33 15 L 33 17 C 33 17.554688 33.449219 18 34 18 Z "/>
<path style=" fill:#8D6C9F;" d="M 39 18 C 39.550781 18 40 17.554688 40 17 L 40 15 C 40 14.445313 39.550781 14 39 14 C 38.449219 14 38 14.445313 38 15 L 38 17 C 38 17.554688 38.449219 18 39 18 Z "/>
<path style=" fill:#8D6C9F;" d="M 44 14 C 43.449219 14 43 14.445313 43 15 L 43 17 C 43 17.554688 43.449219 18 44 18 C 44.550781 18 45 17.554688 45 17 L 45 15 C 45 14.445313 44.550781 14 44 14 Z "/>
<path style=" fill:#8D6C9F;" d="M 49 14 C 48.449219 14 48 14.445313 48 15 L 48 17 C 48 17.554688 48.449219 18 49 18 C 49.550781 18 50 17.554688 50 17 L 50 15 C 50 14.445313 49.550781 14 49 14 Z "/>
<path style=" fill:#8D6C9F;" d="M 54 14 C 53.449219 14 53 14.445313 53 15 L 53 17 C 53 17.554688 53.449219 18 54 18 C 54.550781 18 55 17.554688 55 17 L 55 15 C 55 14.445313 54.550781 14 54 14 Z "/>
<path style=" fill:#8D6C9F;" d="M 19 14 C 18.449219 14 18 14.445313 18 15 L 18 17 C 18 17.554688 18.449219 18 19 18 C 19.550781 18 20 17.554688 20 17 L 20 15 C 20 14.445313 19.550781 14 19 14 Z "/>
<path style=" fill:#8D6C9F;" d="M 24 18 C 24.550781 18 25 17.554688 25 17 L 25 15 C 25 14.445313 24.550781 14 24 14 C 23.449219 14 23 14.445313 23 15 L 23 17 C 23 17.554688 23.449219 18 24 18 Z "/>
<path style=" fill:#8D6C9F;" d="M 14 48 C 13.449219 48 13 48.445313 13 49 L 13 51 C 13 51.554688 13.449219 52 14 52 C 14.550781 52 15 51.554688 15 51 L 15 49 C 15 48.445313 14.550781 48 14 48 Z "/>
<path style=" fill:#8D6C9F;" d="M 9 48 C 8.449219 48 8 48.445313 8 49 L 8 51 C 8 51.554688 8.449219 52 9 52 C 9.550781 52 10 51.554688 10 51 L 10 49 C 10 48.445313 9.550781 48 9 48 Z "/>
<path style=" fill:#8D6C9F;" d="M 29 48 C 28.449219 48 28 48.445313 28 49 L 28 51 C 28 51.554688 28.449219 52 29 52 C 29.550781 52 30 51.554688 30 51 L 30 49 C 30 48.445313 29.550781 48 29 48 Z "/>
<path style=" fill:#8D6C9F;" d="M 34 48 C 33.449219 48 33 48.445313 33 49 L 33 51 C 33 51.554688 33.449219 52 34 52 C 34.550781 52 35 51.554688 35 51 L 35 49 C 35 48.445313 34.550781 48 34 48 Z "/>
<path style=" fill:#8D6C9F;" d="M 39 48 C 38.449219 48 38 48.445313 38 49 L 38 51 C 38 51.554688 38.449219 52 39 52 C 39.550781 52 40 51.554688 40 51 L 40 49 C 40 48.445313 39.550781 48 39 48 Z "/>
<path style=" fill:#8D6C9F;" d="M 44 48 C 43.449219 48 43 48.445313 43 49 L 43 51 C 43 51.554688 43.449219 52 44 52 C 44.550781 52 45 51.554688 45 51 L 45 49 C 45 48.445313 44.550781 48 44 48 Z "/>
<path style=" fill:#8D6C9F;" d="M 49 48 C 48.449219 48 48 48.445313 48 49 L 48 51 C 48 51.554688 48.449219 52 49 52 C 49.550781 52 50 51.554688 50 51 L 50 49 C 50 48.445313 49.550781 48 49 48 Z "/>
<path style=" fill:#8D6C9F;" d="M 54 48 C 53.449219 48 53 48.445313 53 49 L 53 51 C 53 51.554688 53.449219 52 54 52 C 54.550781 52 55 51.554688 55 51 L 55 49 C 55 48.445313 54.550781 48 54 48 Z "/>
<path style=" fill:#8D6C9F;" d="M 19 48 C 18.449219 48 18 48.445313 18 49 L 18 51 C 18 51.554688 18.449219 52 19 52 C 19.550781 52 20 51.554688 20 51 L 20 49 C 20 48.445313 19.550781 48 19 48 Z "/>
<path style=" fill:#8D6C9F;" d="M 24 48 C 23.449219 48 23 48.445313 23 49 L 23 51 C 23 51.554688 23.449219 52 24 52 C 24.550781 52 25 51.554688 25 51 L 25 49 C 25 48.445313 24.550781 48 24 48 Z "/>
<path style=" fill:#8D6C9F;" d="M 60.863281 16.980469 C 60.285156 12.921875 57.035156 9.777344 52.964844 9.324219 L 49.777344 8.96875 C 37.980469 7.660156 26.015625 7.660156 14.21875 8.96875 L 11.03125 9.324219 C 6.964844 9.777344 3.714844 12.925781 3.136719 16.980469 C 1.710938 26.945313 1.648438 37.054688 2.949219 47.035156 L 3.199219 48.921875 C 3.734375 53.035156 6.988281 56.226563 11.109375 56.6875 L 14.21875 57.03125 C 20.121094 57.6875 26.058594 58.015625 32 58.015625 C 37.941406 58.015625 43.882813 57.6875 49.777344 57.03125 L 52.886719 56.6875 C 57.011719 56.226563 60.265625 53.035156 60.800781 48.921875 L 61.046875 47.03125 C 62.347656 37.054688 62.289063 26.941406 60.863281 16.980469 Z M 59.0625 46.773438 L 58.816406 48.664063 C 58.398438 51.859375 55.871094 54.339844 52.667969 54.695313 L 49.558594 55.042969 C 37.90625 56.335938 26.09375 56.339844 14.441406 55.042969 L 11.332031 54.695313 C 8.128906 54.339844 5.597656 51.859375 5.183594 48.660156 L 4.933594 46.773438 C 3.65625 36.976563 3.71875 27.046875 5.113281 17.261719 C 5.566406 14.109375 8.089844 11.660156 11.253906 11.3125 L 14.441406 10.957031 C 20.269531 10.308594 26.132813 9.984375 32 9.984375 C 37.867188 9.984375 43.734375 10.308594 49.558594 10.957031 L 52.746094 11.3125 C 55.910156 11.660156 58.433594 14.109375 58.886719 17.261719 C 60.28125 27.046875 60.34375 36.976563 59.0625 46.773438 Z "/>
<path style=" fill:#8D6C9F;" d="M 44.292969 32.976563 C 44.292969 32.613281 44.09375 32.277344 43.773438 32.101563 L 25.484375 22.015625 C 25.171875 21.84375 24.796875 21.851563 24.492188 22.03125 C 24.1875 22.210938 24 22.535156 24 22.890625 L 24.003906 43 C 24.003906 43.355469 24.1875 43.679688 24.492188 43.859375 C 24.648438 43.953125 24.824219 44 25.003906 44 C 25.167969 44 25.332031 43.960938 25.480469 43.878906 L 43.773438 33.855469 C 44.09375 33.679688 44.292969 33.34375 44.292969 32.976563 Z M 26.003906 41.3125 L 26 24.585938 L 41.214844 32.972656 Z "/>
</g>
</svg>
