<svg xmlns="http://www.w3.org/2000/svg" viewBox="0 0 134.69 44.85"><defs><style>.cls-1{fill:#eda2c2;}</style></defs><title>about-us-blot</title><g id="Слой_2" data-name="Слой 2"><g id="Слой_1-2" data-name="Слой 1"><path class="cls-1" d="M106.78,37.94c0,.71.09,1.37,1,1.55a82.14,82.14,0,0,1,9.8,3,2.59,2.59,0,0,1,1.33.69c.26.32.67.6.4,1.1a.89.89,0,0,1-1.07.5c-1.67-.71-3.63.08-5.21-1.08a2.42,2.42,0,0,0-1.22-.3c-11-.74-22.14-1.88-33.16-.86-13.43,1.24-26.84.61-40.26.81-7.49.11-14.93-1.41-22.44-1a1.93,1.93,0,0,1-2.13-1.49c-.26-.91-.89-1.85.35-2.71s1-1.88-.2-2.38c-1-.41-1.18-2-2.61-1.62-.43-2.36-2.37-3.68-3.67-5.45-.6-.82.54-1,1.15-1.2.77-.27,2.08-.31,1.93-1.29-.18-1.13-1.38-1.32-2.48-1.13-1.52.26-1.5,0-.26-.73.08,0,0-.63-.12-.67-1.43-.57-.72-4-3.57-2.65,0-1.73-2.71-1.38-2.38-2.61s.61-3.11,2.71-3.24C6,15.15,6.71,14.37,6.27,13c-.25-.78.41-.69.69-1,2.14-2.56,5.28-2.37,8.1-3,.32-.08.71,0,.85-.43s-.2-.79-.56-1c-1.1-.6-2.2-.93-3.33,0a1.53,1.53,0,0,1-2.29-.12C9.34,6.93,8.56,6.67,8.65,6s.94-.84,1.58-1.08C12.77,4,15.56,4,18.1,3.07a1.24,1.24,0,0,1,.75-.1c3.37.94,6.73-.06,10.08-.17a73.54,73.54,0,0,0,8.78-1.31,5.25,5.25,0,0,1,1-.21c4.6.15,9-1.33,13.66-1.28,13.34.15,26.7-.06,40,.1,5.86.08,11.67,1.08,17.5,1.69,4,.42,8.06,1.37,12.18,1.35,4.42,0,8.18,2.12,11.9,4.19,1.13.63.92,1.69-.89,2.26s-1.76,1.68-2,3a1.52,1.52,0,0,0,1,1.85c.59.28,1.17.47,1.36,1.34.23,1.09.94,1.88-.74,2.63a7.42,7.42,0,0,0-3.54,3.6c-.64,1.35-1.73,1.51-3.16,1.57-2.37.09-4.73-.14-7.12.16-1.19.14-2.61-.71-4-.71-.39,0-.81-.27-1.22-.06s-.73.46-.69,1,.44.52.76.52c3.63,0,6.87,1.87,10.45,2.1.33,0,.79.11.78.48s-.41.49-.67.69c-2.24,1.67-2.2,1.61,0,3.42.79.63,1.53,1.34,2.36,1.95.58.42,1.31.78.84,1.84-.37.82-.6,1.62-1.69,1.61-.93,0-1.8.63-2.77.32a1.13,1.13,0,0,0-1.49.63c-.36.69.31.8.69,1.1,1,.76.19,1.09-.39,1.42-1.55.88-3.28.54-4.77.22-3.21-.7-6.44-1.33-9.66-2a2.84,2.84,0,0,1-.68-.33l-.41.08ZM20.39,8.87c.54-.14,1.63,0,1.56-.35-.2-.89-1.24-1-2-1.12a.8.8,0,0,0-1,.86C19.05,9.07,19.83,8.8,20.39,8.87Zm3.93-.82c-.38,0-.64.2-.52.47s.43.19.66.2.59,0,.4-.38C24.77,8.17,24.45,8.11,24.32,8.05Zm-13,14.1c-.13.06-.42.11-.51.27s.09.45.34.49.68,0,.74-.4S11.66,22.19,11.34,22.15Zm97.33.56c.28,0,.51-.13.46-.45a.49.49,0,0,0-.54-.42c-.31,0-.49.17-.46.47S108.4,22.68,108.67,22.71Zm2.64.36c-.07,0-.19-.11-.21-.09s-.13.27.12.29C111.25,23.27,111.28,23.14,111.31,23.07Zm-92.57,14,.31-.19c-.05,0-.13-.13-.16-.12a1.65,1.65,0,0,0-.32.18Z"/><path class="cls-1" d="M1.26,26C.66,26,0,25.8,0,25.06s.54-.79,1.07-.8a3.68,3.68,0,0,0,2.49-1.08c.55-.5,1.49-.57,1.83,0,.54.91-.49,1.07-1.06,1.23C3.18,24.73,2.66,26.19,1.26,26Z"/></g></g></svg>