<svg xmlns="http://www.w3.org/2000/svg" viewBox="0 0 149.17 56.54"><defs><style>.cls-1{fill:#eda2c2;}</style></defs><title>main-blot</title><g id="Слой_2" data-name="Слой 2"><g id="Слой_1-2" data-name="Слой 1"><path class="cls-1" d="M137.68,37.5c-3.81.23-7.5.43-11,2.5-2.24,1.32-5.21,1.23-7.94,1.41a110.75,110.75,0,0,0-16.13,1.81.75.75,0,0,1-.26,0c-4.66-.49-9.19.83-13.76,1.27-6.09.59-12.27.31-18.28,1.69a3,3,0,0,1-.78.11c-7.72-.13-15.35,1.57-23.11,1.05A51,51,0,0,0,34,48.26c-2.27.41-3.89,2.3-6.34,2.27-.82,0-.61,1,.09,1.56.33.24.95.36.67.91s-.78.26-1.2.29c-1.27.08-3.17-.68-2.53,1.92.11.45-.21.62-.6.64-4.1.22-8.29,1.07-12.26.48s-8-1.76-11.31-4.54A1.23,1.23,0,0,1,0,50.93c.11-.61.69-.47,1.07-.36a23.66,23.66,0,0,0,7.06.71c.4,0,1,.15,1.09-.41s-.49-.52-.87-.66c-1.3-.51-2.55-1.16-3.88-1.57S1.88,48.19,3,46.15c.5-.9-.94-1.93-1.45-2.91s-.87-1.71.71-1.93c1.93-.26,2.3-1.14.85-2.56-.45-.45-1-.89-.52-1.57s1.22-.37,1.86-.07a9.11,9.11,0,0,0,1.23.46c.66.19,1.53.65,2,0,.56-.88-.4-1.42-1-1.86-1.26-.92-1.86-1.91-.65-3.26.61-.7.13-1.15-.29-1.57-1.46-1.45-.75-2.48.61-3.39,1-.67,2.29-1.11,1.59-2.79-.26-.63.32-.84.83-1.09,2-1,2.27-2,.59-3.37s-1.11-1.88.25-3.14c1-.94,3.74-1,2.73-3.62-.11-.3.35-.7.69-.64,1.93.34,3.44-1.31,5.27-1.12s3-1.07,4.58-1c.24,0,.58-.21.42-.44a1.1,1.1,0,0,0-.85-.47c-2.7.4-5.15-1.06-7.81-.94-.43,0-1.07,0-1.1-.48,0-.65.66-.73,1.15-.78,8.73-1,17.5-.87,26.26-.9,7.22,0,14.48.51,21.65-.13,4.55-.41,9.16-.17,13.61-.94C79.55,5,83,5.24,86.25,4a3.55,3.55,0,0,1,1.3-.22c4.73-.06,9.32-1.49,14-1.76C106.38,1.71,111.12.75,116,.38c7.3-.57,14.56-.11,21.84-.37a26.59,26.59,0,0,1,6.74,1c1.43.31,2.61,1.87,4.18,2.45a.71.71,0,0,1,.41.88c-.15.39-.55.36-.88.39-.62.06-1.24,0-1.85.12a1.73,1.73,0,0,0-1.51.93c-.34.87.53.87,1,1.17.95.61,1.14,1.72,1.59,2.65.19.38.06,1,.32,1.25,2,1.79,1.17,2.91-.82,3.85-.29.14-.75.55-.7.71.52,1.92-1,2.07-2.08,2.9s-1.19,1.44-1.94,0a.76.76,0,0,0-1.32,0,1,1,0,0,0,.35,1.37,6.05,6.05,0,0,0,1,.33c1.47.64,4.1.52,2.06,3.41-.54.75.55,1.18,1.1,1.5a3.27,3.27,0,0,1,1.62,2.83c.09,1.06-.16,1.52-1.27,1.86-.75.22-3.39,0-1.22,2.23.43.43-.41.54-.77.64a23.77,23.77,0,0,1-8,1c-.76,0-2-.25-2.07.58,0,1.13,1.23,1.36,2.2,1.33a12.58,12.58,0,0,1,5.91,1c.35.16,1,0,.94.6s-.7.48-1.11.5C140.32,37.53,139,37.5,137.68,37.5Zm0-18.92c-.55.23-1.8-.35-1.68.47.17,1.19,1.77.53,2.63,1.05.45.27,1.23,0,1.19-.61C139.73,18,138.43,19,137.69,18.58ZM18.07,52.23c.51-.15,1.37.43,1.49-.37.08-.62-.76-.5-1.22-.51s-1.56-.22-1.62.29C16.61,52.53,17.58,52.05,18.07,52.23Zm6.27-1c-.51.15-1.47-.28-1.42.59,0,.69,1,.47,1.54.53s1.28.11,1.29-.48C25.76,51,24.87,51.37,24.34,51.24Zm-10.7.12c-.28,0-.76-.09-.82.31s.41.46.74.46.8.07.86-.32S14,51.45,13.64,51.36Zm-7.3,2.49c0-.12-.09-.32-.17-.34s-.28.06-.43.11c.06.12.1.32.19.35S6.2,53.9,6.34,53.85Z"/><path class="cls-1" d="M34.22,52.85a.75.75,0,0,1-.84.35c-.36-.06-.65-.32-.44-.64s.59-.2.9-.19S34.35,52.49,34.22,52.85Z"/></g></g></svg>