<?xml version="1.0" encoding="utf-8"?>
<!-- Generator: Adobe Illustrator 22.1.0, SVG Export Plug-In . SVG Version: 6.00 Build 0)  -->
<svg version="1.1" id="Слой_1" xmlns="http://www.w3.org/2000/svg" xmlns:xlink="http://www.w3.org/1999/xlink" x="0px" y="0px"
	 viewBox="0 0 161.3 50.4" style="enable-background:new 0 0 161.3 50.4;" xml:space="preserve">
<style type="text/css">
	.st0{fill:#EDA2C2;}
</style>
<title>main-blot</title>
<g id="Слой_2_1_">
	<g id="Слой_1-2">
		<path class="st0" d="M147.2,38.3c-4.1,0-8,0-11.8,1.9c-2.5,1.2-5.6,0.9-8.5,1c-5.8-0.1-11.5,0.2-17.3,0.9c-0.1,0-0.2,0-0.3,0
			c-4.9-0.8-9.8,0.3-14.7,0.5c-6.5,0.2-13.1-0.4-19.5,0.6c-0.3,0.1-0.6,0.1-0.8,0.1c-8.2-0.6-16.4,0.7-24.6-0.3
			c-4.4-0.4-8.9-0.4-13.3,0.2c-2.4,0.3-4.3,2.1-6.9,1.9c-0.9,0-0.7,1,0,1.6c0.3,0.3,1,0.4,0.7,0.9c-0.3,0.5-0.8,0.2-1.3,0.2
			c-1.4,0-3.3-0.9-2.8,1.8c0.1,0.5-0.3,0.6-0.7,0.6c-4.4,0-8.9,0.6-13.1-0.2c-4.2-0.8-8.4-2.2-11.8-5.2C0.2,44.6,0,44.2,0,43.9
			c0.1-0.6,0.8-0.4,1.2-0.3c2.4,0.7,4.9,1.1,7.5,1.1c0.4,0,1.1,0.2,1.2-0.3s-0.5-0.5-0.9-0.7c-1.4-0.6-2.7-1.3-4-1.8
			s-2.7-0.6-1.4-2.6c0.6-0.9-0.9-2-1.4-3c-0.5-1-0.8-1.8,0.9-1.9c2.1-0.1,2.5-1,1-2.5c-0.5-0.5-1-0.9-0.5-1.6s1.3-0.3,2,0
			c0.4,0.2,0.8,0.4,1.3,0.5c0.7,0.2,1.6,0.7,2.1,0.1c0.6-0.8-0.3-1.4-1-1.9c-1.3-1-1.9-2-0.5-3.3c0.7-0.7,0.2-1.1-0.2-1.6
			c-1.5-1.5-0.7-2.5,0.8-3.4c1.1-0.6,2.5-1,1.8-2.7c-0.2-0.6,0.4-0.8,0.9-1c2.2-0.9,2.5-1.9,0.8-3.3s-1.1-1.9,0.4-3.1
			c1.1-0.9,4-0.8,3.1-3.5c-0.1-0.3,0.4-0.7,0.8-0.6c2,0.4,3.7-1.1,5.7-0.8c1.9,0.3,3.2-0.9,4.9-0.7c0.3,0,0.6-0.2,0.5-0.4
			c-0.2-0.3-0.5-0.5-0.9-0.5c-2.9,0.2-5.4-1.4-8.3-1.4c-0.5,0-1.1-0.1-1.1-0.5c0-0.6,0.7-0.7,1.3-0.7c9.3-0.5,18.7,0.1,28,0.6
			c7.7,0.4,15.4,1.3,23,1.1C73.8,3,78.7,3.5,83.5,3c3.6-0.4,7.2,0,10.8-1.1c0.5-0.1,0.9-0.2,1.4-0.1c5,0.2,10-1,15-1
			c5.2,0,10.3-0.7,15.5-0.8c7.8-0.2,15.5,0.7,23.3,0.9c2.4,0.2,4.8,0.6,7.1,1.4c1.5,0.4,2.7,2,4.3,2.7c0.4,0.2,0.5,0.6,0.4,0.9
			c-0.2,0.4-0.6,0.3-1,0.3c-0.7,0-1.3-0.1-2,0c-0.7,0-1.3,0.3-1.7,0.8c-0.4,0.8,0.5,0.9,1,1.2c1,0.7,1.1,1.8,1.6,2.7
			c0.2,0.4,0,1,0.3,1.3c2,1.9,1.1,3-1.1,3.8c-0.3,0.1-0.8,0.5-0.8,0.7c0.5,1.9-1.2,2-2.4,2.8c-1.2,0.8-1.3,1.4-2.1-0.1
			c-0.2-0.4-0.7-0.5-1.1-0.3c-0.1,0.1-0.2,0.2-0.3,0.3c-0.3,0.5-0.2,1.1,0.3,1.4c0.3,0.2,0.7,0.3,1,0.4c1.5,0.7,4.3,0.8,2,3.5
			c-0.6,0.7,0.5,1.2,1.1,1.6c1,0.6,1.6,1.8,1.6,2.9c0,1.1-0.3,1.5-1.5,1.8c-0.8,0.2-3.6-0.2-1.4,2.2c0.4,0.5-0.5,0.5-0.9,0.6
			c-2.8,0.6-5.7,0.8-8.6,0.5c-0.8,0-2.1-0.4-2.2,0.5c-0.1,1.1,1.2,1.4,2.3,1.5c2.2,0,4.3,0.4,6.2,1.3c0.4,0.2,1.1,0.1,1,0.7
			s-0.8,0.4-1.2,0.4C150,38.5,148.6,38.4,147.2,38.3z M148.2,19.4c-0.6,0.2-1.9-0.5-1.8,0.4c0.1,1.2,1.9,0.6,2.7,1.2
			c0.5,0.3,1.3,0.1,1.3-0.5C150.5,19,149,19.9,148.2,19.4L148.2,19.4z M19.2,46.2c0.6-0.1,1.4,0.5,1.6-0.3c0.1-0.6-0.8-0.5-1.3-0.6
			c-0.5,0-1.6-0.3-1.7,0.2C17.6,46.4,18.6,46,19.2,46.2z M25.9,45.6c-0.6,0.1-1.5-0.4-1.5,0.5c0,0.7,1,0.5,1.6,0.6
			c0.6,0.1,1.4,0.2,1.4-0.4C27.4,45.4,26.4,45.7,25.9,45.6L25.9,45.6z M14.5,45.1c-0.3,0-0.8-0.1-0.9,0.3s0.4,0.5,0.8,0.5
			c0.4,0,0.8,0.1,0.9-0.3C15.4,45.2,14.9,45.2,14.5,45.1L14.5,45.1z M6.6,47.2c0-0.1-0.1-0.3-0.2-0.3s-0.3,0-0.5,0.1
			C6,47,6.1,47.2,6.1,47.3S6.4,47.2,6.6,47.2L6.6,47.2z"/>
		<path class="st0" d="M36.3,47.8c-0.2,0.3-0.6,0.4-0.9,0.3C35,48,34.7,47.7,35,47.4c0.2-0.3,0.6-0.2,1-0.1
			C36.3,47.3,36.5,47.4,36.3,47.8z"/>
	</g>
</g>
</svg>
